<svg width="54" height="55" viewBox="0 0 54 55" fill="none" xmlns="http://www.w3.org/2000/svg">
<rect x="0.0117188" y="0.0422363" width="53.242" height="54.6231" rx="26.621" fill="#F4F5F7"/>
<g clip-path="url(#clip0_1386_807)">
<path d="M36.0117 39.0422H27.0117C26.7465 39.0422 26.4921 38.9369 26.3046 38.7493C26.1171 38.5618 26.0117 38.3075 26.0117 38.0422V36.0422C26.0117 35.777 26.1171 35.5227 26.3046 35.3351C26.4921 35.1476 26.7465 35.0422 27.0117 35.0422H36.0117C36.2769 35.0422 36.5313 35.1476 36.7188 35.3351C36.9064 35.5227 37.0117 35.777 37.0117 36.0422V38.0422C37.0117 38.3075 36.9064 38.5618 36.7188 38.7493C36.5313 38.9369 36.2769 39.0422 36.0117 39.0422Z" fill="#D6B1FF"/>
<path d="M36.0117 15.0422H18.0117C17.7465 15.0422 17.4921 15.1476 17.3046 15.3351C17.1171 15.5227 17.0117 15.777 17.0117 16.0422V18.0422C17.0117 18.3075 17.1171 18.5618 17.3046 18.7493C17.4921 18.9369 17.7465 19.0422 18.0117 19.0422H36.0117C36.2769 19.0422 36.5313 18.9369 36.7188 18.7493C36.9064 18.5618 37.0117 18.3075 37.0117 18.0422V16.0422C37.0117 15.777 36.9064 15.5227 36.7188 15.3351C36.5313 15.1476 36.2769 15.0422 36.0117 15.0422Z" fill="#11B5E4"/>
<path d="M36.0117 21.0422H18.0117C17.7465 21.0422 17.4921 21.1476 17.3046 21.3351C17.1171 21.5227 17.0117 21.777 17.0117 22.0422V32.0422C17.0117 32.3075 17.1171 32.5618 17.3046 32.7493C17.4921 32.9369 17.7465 33.0422 18.0117 33.0422H36.0117C36.2769 33.0422 36.5313 32.9369 36.7188 32.7493C36.9064 32.5618 37.0117 32.3075 37.0117 32.0422V22.0422C37.0117 21.777 36.9064 21.5227 36.7188 21.3351C36.5313 21.1476 36.2769 21.0422 36.0117 21.0422Z" fill="#11B5E4"/>
</g>
<defs>
<clipPath id="clip0_1386_807">
<rect width="24" height="24" fill="white" transform="translate(15.0117 15.0422)"/>
</clipPath>
</defs>
</svg>
