<svg width="54" height="56" viewBox="0 0 54 56" fill="none" xmlns="http://www.w3.org/2000/svg">
<rect x="0.0117188" y="0.953857" width="53.242" height="54.6231" rx="26.621" fill="#F4F5F7"/>
<g clip-path="url(#clip0_1386_827)">
<path d="M33.0117 25.9539H39.0117L36.0117 21.9539L33.0117 25.9539ZM33.0117 29.9539H39.0117L36.0117 33.9539L33.0117 29.9539Z" fill="#D6B1FF"/>
<path d="M16.0117 15.9539H22.0117V39.9539H16.0117C15.7465 39.9539 15.4921 39.8485 15.3046 39.661C15.1171 39.4734 15.0117 39.2191 15.0117 38.9539V16.9539C15.0117 16.6886 15.1171 16.4343 15.3046 16.2467C15.4921 16.0592 15.7465 15.9539 16.0117 15.9539Z" fill="#02897A"/>
<path d="M24.0117 15.9539H30.0117C30.2769 15.9539 30.5313 16.0592 30.7188 16.2467C30.9064 16.4343 31.0117 16.6886 31.0117 16.9539V38.9539C31.0117 39.2191 30.9064 39.4734 30.7188 39.661C30.5313 39.8485 30.2769 39.9539 30.0117 39.9539H24.0117V15.9539Z" fill="#02897A"/>
</g>
<defs>
<clipPath id="clip0_1386_827">
<rect width="24" height="24" fill="white" transform="translate(15.0117 15.9539)"/>
</clipPath>
</defs>
</svg>
