<svg width="146" height="50" viewBox="0 0 146 50" fill="none" xmlns="http://www.w3.org/2000/svg">
<path d="M62.1307 25.6413C62.1307 32.5815 56.7684 37.6956 50.1876 37.6956C43.6069 37.6956 38.2446 32.5815 38.2446 25.6413C38.2446 18.6521 43.6069 13.5869 50.1876 13.5869C56.7684 13.5869 62.1307 18.6521 62.1307 25.6413ZM56.9026 25.6413C56.9026 21.3043 53.7947 18.3369 50.1876 18.3369C46.5806 18.3369 43.4727 21.3043 43.4727 25.6413C43.4727 29.9347 46.5806 32.9456 50.1876 32.9456C53.7947 32.9456 56.9026 29.9293 56.9026 25.6413Z" fill="#EA4335"/>
<path d="M87.8953 25.6413C87.8953 32.5815 82.533 37.6956 75.9523 37.6956C69.3716 37.6956 64.0093 32.5815 64.0093 25.6413C64.0093 18.6576 69.3716 13.5869 75.9523 13.5869C82.533 13.5869 87.8953 18.6521 87.8953 25.6413ZM82.6672 25.6413C82.6672 21.3043 79.5593 18.3369 75.9523 18.3369C72.3452 18.3369 69.2374 21.3043 69.2374 25.6413C69.2374 29.9347 72.3452 32.9456 75.9523 32.9456C79.5593 32.9456 82.6672 29.9293 82.6672 25.6413Z" fill="#FBBC05"/>
<path d="M112.586 14.3152V35.9565C112.586 44.8587 107.401 48.4945 101.271 48.4945C95.5012 48.4945 92.0283 44.5869 90.7186 41.3913L95.2704 39.4728C96.0809 41.4347 98.0669 43.75 101.266 43.75C105.19 43.75 107.621 41.2989 107.621 36.6847V34.951H107.439C106.269 36.413 104.014 37.6902 101.169 37.6902C95.2167 37.6902 89.7632 32.4402 89.7632 25.6847C89.7632 18.8804 95.2167 13.5869 101.169 13.5869C104.009 13.5869 106.263 14.8641 107.439 16.2826H107.621V14.3206H112.586V14.3152ZM107.992 25.6847C107.992 21.4402 105.195 18.3369 101.636 18.3369C98.0294 18.3369 95.0074 21.4402 95.0074 25.6847C95.0074 29.8858 98.0294 32.9456 101.636 32.9456C105.195 32.9456 107.992 29.8858 107.992 25.6847Z" fill="#4285F4"/>
<path d="M120.772 1.63043V36.9565H115.673V1.63043H120.772Z" fill="#34A853"/>
<path d="M140.643 29.6087L144.701 32.3478C143.392 34.3098 140.236 37.6902 134.782 37.6902C128.019 37.6902 122.968 32.3968 122.968 25.6359C122.968 18.4674 128.062 13.5815 134.197 13.5815C140.375 13.5815 143.397 18.5598 144.385 21.25L144.927 22.6196L129.012 29.2935C130.23 31.712 132.125 32.9457 134.782 32.9457C137.444 32.9457 139.291 31.6196 140.643 29.6087ZM128.153 25.2718L138.792 20.7989C138.207 19.2935 136.446 18.2446 134.374 18.2446C131.717 18.2446 128.019 20.6196 128.153 25.2718Z" fill="#EA4335"/>
<path d="M18.9426 22.5054V17.3912H35.9634C36.1298 18.2825 36.2156 19.3369 36.2156 20.4782C36.2156 24.3152 35.1797 29.0597 31.841 32.4402C28.5936 35.8641 24.4444 37.6902 18.9479 37.6902C8.76012 37.6902 0.193359 29.288 0.193359 18.9728C0.193359 8.65754 8.76012 0.255371 18.9479 0.255371C24.5839 0.255371 28.5989 2.4945 31.6156 5.41298L28.0514 9.02168C25.8883 6.96733 22.9576 5.3695 18.9426 5.3695C11.503 5.3695 5.68446 11.4402 5.68446 18.9728C5.68446 26.5054 11.503 32.576 18.9426 32.576C23.7681 32.576 26.5163 30.6141 28.2769 28.8315C29.7047 27.3858 30.644 25.3206 31.0144 22.4999L18.9426 22.5054Z" fill="#4285F4"/>
</svg>
