<svg width="425" height="403" viewBox="0 0 425 403" fill="none" xmlns="http://www.w3.org/2000/svg">
<ellipse cx="164.013" cy="178.358" rx="164.013" ry="178.358" transform="matrix(-1 0 0 1 365.255 23.6177)" fill="#F3F3F3"/>
<path fill-rule="evenodd" clip-rule="evenodd" d="M338.564 279.911C338.635 279.863 339.076 280.539 339.729 281.87C340.384 283.196 341.2 285.21 341.958 287.809C343.511 292.989 344.486 300.637 343.908 308.977C343.335 317.315 341.672 324.635 340.39 329.846C339.078 335.058 338.112 338.222 337.945 338.169C337.762 338.11 338.413 334.836 339.49 329.573C340.539 324.31 342.036 317.029 342.597 308.861C343.161 300.696 342.359 293.264 341.069 288.125C339.818 282.962 338.357 280.035 338.564 279.911Z" fill="white"/>
<path fill-rule="evenodd" clip-rule="evenodd" d="M342.995 238.177C343.078 238.135 343.612 239.268 344.503 241.357C345.393 243.447 346.644 246.492 348.124 250.292C351.059 257.892 355.01 268.53 357.876 280.88C359.284 287.058 360.244 293.064 360.731 298.58C361.221 304.094 361.27 309.105 361.025 313.286C360.788 317.47 360.332 320.827 359.894 323.11C359.461 325.397 359.117 326.629 359.039 326.609C358.796 326.555 359.869 321.52 360.097 313.236C360.38 304.97 359.444 293.485 356.605 281.273C353.771 269.057 349.982 258.413 347.27 250.719C345.904 246.869 344.799 243.753 344.035 241.599C343.288 239.436 342.912 238.22 342.995 238.177Z" fill="white"/>
<path fill-rule="evenodd" clip-rule="evenodd" d="M178.997 287.16C179.15 287.35 177.658 288.999 175.723 292.061C175.243 292.83 174.721 293.671 174.233 294.632C173.699 295.558 173.235 296.62 172.718 297.716C171.757 299.951 170.845 302.492 170.141 305.257C169.468 308.033 169.076 310.746 168.864 313.232C168.8 314.478 168.707 315.664 168.733 316.776C168.707 317.892 168.762 318.927 168.816 319.875C169.05 323.66 169.557 325.976 169.341 326.044C169.21 326.096 168.375 323.859 167.891 319.985C167.775 319.017 167.664 317.954 167.643 316.803C167.569 315.653 167.622 314.424 167.656 313.129C167.807 310.547 168.178 307.716 168.878 304.835C169.607 301.963 170.59 299.338 171.648 297.058C172.212 295.939 172.73 294.865 173.322 293.939C173.866 292.976 174.449 292.144 174.991 291.396C177.178 288.414 178.911 287.036 178.997 287.16Z" fill="white"/>
<path fill-rule="evenodd" clip-rule="evenodd" d="M182.498 300.522C182.609 300.726 181.778 301.463 180.692 302.872C180.143 303.568 179.564 304.47 178.994 305.516C178.449 306.579 177.926 307.798 177.516 309.144C177.123 310.495 176.887 311.829 176.752 313.058C176.644 314.287 176.62 315.41 176.683 316.353C176.788 318.237 177.052 319.412 176.855 319.494C176.715 319.563 176.123 318.488 175.761 316.496C175.573 315.502 175.495 314.286 175.544 312.939C175.621 311.596 175.843 310.123 176.272 308.646C176.719 307.176 177.328 305.859 177.982 304.746C178.658 303.649 179.367 302.748 180.042 302.101C181.386 300.789 182.424 300.365 182.498 300.522Z" fill="white"/>
<path fill-rule="evenodd" clip-rule="evenodd" d="M133.912 176.002C133.98 175.933 134.568 176.605 135.578 177.885C136.091 178.519 136.697 179.317 137.338 180.301C137.986 181.277 138.765 182.36 139.497 183.662C139.874 184.304 140.27 184.977 140.681 185.678C141.089 186.384 141.459 187.156 141.87 187.936C142.712 189.486 143.468 191.235 144.289 193.059C145.839 196.76 147.322 200.961 148.503 205.514C149.646 210.081 150.371 214.542 150.805 218.625C150.97 220.674 151.156 222.619 151.175 224.449C151.195 225.363 151.247 226.244 151.236 227.094C151.219 227.942 151.202 228.756 151.187 229.532C151.183 231.088 151.037 232.487 150.95 233.715C150.873 234.945 150.739 235.996 150.605 236.85C150.358 238.563 150.179 239.497 150.089 239.483C149.857 239.447 150.294 235.653 150.257 229.521C150.245 228.754 150.233 227.953 150.221 227.116C150.206 226.281 150.129 225.413 150.086 224.515C150.021 222.716 149.797 220.809 149.603 218.799C149.11 214.796 148.363 210.429 147.242 205.947C146.082 201.478 144.662 197.34 143.199 193.669C142.421 191.86 141.713 190.118 140.926 188.567C140.54 187.785 140.197 187.01 139.819 186.298C139.437 185.589 139.072 184.908 138.722 184.258C135.879 179.087 133.733 176.178 133.912 176.002Z" fill="white"/>
<path fill-rule="evenodd" clip-rule="evenodd" d="M148.802 183.145C148.914 183.03 150.425 184.668 152.346 187.825C153.312 189.397 154.331 191.378 155.322 193.661C156.285 195.961 157.204 198.572 157.937 201.402C158.648 204.24 159.1 207.012 159.37 209.549C159.607 212.091 159.681 214.395 159.605 216.324C159.472 220.184 158.972 222.511 158.824 222.484C158.613 222.454 158.782 220.098 158.675 216.323C158.632 214.436 158.464 212.196 158.169 209.732C157.84 207.273 157.366 204.591 156.677 201.835C155.964 199.086 155.105 196.536 154.228 194.265C153.322 192.009 152.413 190.024 151.565 188.411C149.885 185.175 148.64 183.304 148.802 183.145Z" fill="white"/>
<path fill-rule="evenodd" clip-rule="evenodd" d="M96.6598 307.913L95.5151 305.203L63.647 333.435L77.55 359.55L109.273 328.538L96.6598 307.913Z" fill="#22343D"/>
<path fill-rule="evenodd" clip-rule="evenodd" d="M64.9819 334.039L77.1957 358.529L77.9767 358.125L67.1 335.226L64.9819 334.039Z" fill="#D7D4D4"/>
<path fill-rule="evenodd" clip-rule="evenodd" d="M96.0298 307.376L64.9819 334.038C64.9819 334.038 65.1121 334.611 65.8826 334.964C66.654 335.317 67.1 335.227 67.1 335.227L99.7415 309.324C99.7415 309.324 97.8598 308.817 97.1774 308.227C96.494 307.634 96.0298 307.376 96.0298 307.376Z" fill="#F5F3F3"/>
<path fill-rule="evenodd" clip-rule="evenodd" d="M100.539 308.279L66.5166 334.628L77.5665 358.91L79.3467 362.272L113.37 333.076C113.37 333.076 109.787 326.874 107.635 323.13C105.484 319.386 101.26 310.555 101.03 309.989C100.8 309.423 100.539 308.279 100.539 308.279Z" fill="#FAB005"/>
<path fill-rule="evenodd" clip-rule="evenodd" d="M381.115 126.37L382.076 124.094L408.837 147.802L397.162 169.732L370.524 143.689L381.115 126.37Z" fill="#22343D"/>
<path fill-rule="evenodd" clip-rule="evenodd" d="M407.715 148.308L397.46 168.873L396.803 168.535L405.937 149.306L407.715 148.308Z" fill="#D7D4D4"/>
<path fill-rule="evenodd" clip-rule="evenodd" d="M381.644 125.919L407.716 148.308C407.716 148.308 407.605 148.789 406.959 149.085C406.311 149.381 405.936 149.306 405.936 149.306L378.526 127.554C378.526 127.554 380.107 127.129 380.68 126.632C381.253 126.135 381.644 125.919 381.644 125.919Z" fill="#F5F3F3"/>
<path fill-rule="evenodd" clip-rule="evenodd" d="M377.857 126.678L406.427 148.803L397.148 169.194L395.653 172.017L367.082 147.499C367.082 147.499 370.092 142.291 371.898 139.147C373.706 136.003 377.252 128.588 377.444 128.113C377.638 127.639 377.857 126.678 377.857 126.678Z" fill="#4DADF7"/>
<path fill-rule="evenodd" clip-rule="evenodd" d="M58.6127 83.6993C58.6127 83.6993 56.5922 85.3207 57.602 88.0241C58.6127 90.7275 63.0422 98.7466 69.0261 98.4758C69.2711 98.4658 61.4879 83.6993 61.4879 83.6993H58.6127Z" fill="#22343D"/>
<path fill-rule="evenodd" clip-rule="evenodd" d="M49.4593 231.534C49.4593 231.534 41.9765 223.784 39.5809 225.172C36.654 226.869 19.9016 245.9 20.5563 254.866C20.8252 258.538 24.512 255.392 31.0817 247.491C37.6532 239.59 45.9275 242.976 45.9275 242.976L49.4593 231.534Z" fill="#22343D"/>
<path fill-rule="evenodd" clip-rule="evenodd" d="M67.6395 244.605L58.6062 238.322C58.6062 238.322 35.1913 263.774 38.8494 267.168C41.6241 269.742 43.255 267.433 49.8256 259.532C56.3953 251.632 64.7193 256.175 64.7193 256.175L67.6395 244.605Z" fill="#22343D"/>
<path fill-rule="evenodd" clip-rule="evenodd" d="M122.82 160.869L124.514 188.759L86.9106 177.401L122.82 160.869Z" fill="#F3A683"/>
<path fill-rule="evenodd" clip-rule="evenodd" d="M86.9104 178.36C86.9104 178.36 119.803 180.764 124.182 179.069C124.182 179.069 130.61 252.288 119.173 260.187C107.734 268.089 82.0664 256.519 82.0664 256.519L88.9969 240.719L103.939 239.59V211.374L102.867 211.656L86.9104 178.36Z" fill="#112129"/>
<path fill-rule="evenodd" clip-rule="evenodd" d="M45.6788 228.304C45.6788 228.304 37.4055 232.255 40.0826 241.848C40.0826 241.848 68.3242 267.525 82.0665 261.599C89.7655 258.28 98.036 232.953 103.822 211.314L124.182 179.069C124.182 179.069 114.58 179.626 111.376 179.612C105.254 179.585 86.9104 178.36 86.9104 178.36C86.9104 178.36 77.3287 236.487 73.9147 237.898C70.5007 239.307 45.6788 228.304 45.6788 228.304Z" fill="#22343D"/>
<path fill-rule="evenodd" clip-rule="evenodd" d="M94.5757 105.456C94.5757 105.456 114.288 84.0112 117.695 78.367C121.101 72.7238 128.404 53.8191 137.406 45.9187L133.026 35.1962C133.026 35.1962 135.704 33.5038 137.406 38.0172C137.406 38.0172 143.732 23.3461 145.193 23.6269C146.654 23.9088 142.274 34.9143 142.274 34.9143C142.274 34.9143 148.359 24.7555 150.062 25.0385C151.763 25.3204 145.681 36.458 145.681 36.458C145.681 36.458 152.494 27.2958 153.468 28.4244C154.441 29.553 148.114 36.458 148.114 36.458C148.114 36.458 154.928 31.9224 155.658 33.4172C156.388 34.9143 148.844 38.8639 148.844 38.8639C148.844 38.8639 148.114 45.3538 143.491 48.1748C143.491 48.1748 134.336 76.8533 126.062 86.1642L99.4819 118.194L94.5757 105.456Z" fill="#FFC6B2"/>
<path fill-rule="evenodd" clip-rule="evenodd" d="M71.0441 116.571C71.0441 116.571 52.366 139.225 47.4675 143.122C42.568 147.017 26.1965 155.308 19.2995 165.673L10.093 160.494C10.093 160.494 8.60853 163.581 12.4858 165.598C12.4858 165.598 -0.227564 172.797 0.00310126 174.493C0.231852 176.189 9.76377 171.213 9.76377 171.213C9.76377 171.213 0.945861 178.173 1.17365 180.15C1.40145 182.126 11.0626 175.177 11.0626 175.177C11.0626 175.177 3.09746 182.991 4.06223 184.129C5.02509 185.269 11.0406 177.999 11.0406 177.999C11.0406 177.999 7.06471 185.856 8.34916 186.716C9.63169 187.576 13.1089 178.867 13.1089 178.867C13.1089 178.867 18.7119 178.083 21.1898 172.748C21.1898 172.748 44.6172 161.94 52.7259 152.434L81.8796 128.482L71.0441 116.571Z" fill="#FFC6B2"/>
<path fill-rule="evenodd" clip-rule="evenodd" d="M78.0463 107.541L68.5996 118.264L70.9953 130.351C70.9953 130.351 80.3023 156.259 81.7092 162.579C83.8962 172.407 80.3587 187.392 80.3587 187.392C80.3587 187.392 96.1368 185.873 110.494 185.309C124.849 184.744 129.546 179.382 129.546 179.382C129.546 179.382 117.099 131.314 108.505 117.877C99.9098 104.442 96.7838 100.236 96.7838 100.236L84.1298 103.443L78.0463 107.541Z" fill="#FAB005"/>
<path fill-rule="evenodd" clip-rule="evenodd" d="M105.771 116.292L115.614 109C115.614 109 117.118 101.187 105.247 91.9719L91.3281 102.085L105.771 116.292Z" fill="#22343D"/>
<path fill-rule="evenodd" clip-rule="evenodd" d="M70.5905 117.416C65.1943 118.294 55.3331 134.151 54.2334 134.121C54.2334 134.121 61.1734 147.253 66.6711 147.679C66.6711 147.679 90.8642 114.119 70.5905 117.416Z" fill="#22343D"/>
<path fill-rule="evenodd" clip-rule="evenodd" d="M89.6388 107.098C89.6388 107.098 81.7952 100.303 82.0671 97.5942C82.136 96.9117 83.2232 95.8042 83.5056 94.8209C85.0265 89.5307 77.694 75.8995 73.1888 73.0263C69.6446 70.7669 71.198 70.5671 63.7392 75.7064C56.2804 80.8457 60.53 89.7327 63.8608 94.3293C67.0097 98.674 70.6161 100.535 73.8607 100.849L78.474 112.73L89.6388 107.098Z" fill="#FFC6B2"/>
<path fill-rule="evenodd" clip-rule="evenodd" d="M75.4858 116.531C74.0022 112.311 76.8114 106.997 81.7606 104.656C86.7118 102.315 91.9252 103.837 93.4116 108.054C94.8942 112.273 89.9134 118.614 87.1329 119.929C84.3525 121.244 76.9684 120.748 75.4858 116.531Z" fill="#FFC6B2"/>
<path fill-rule="evenodd" clip-rule="evenodd" d="M63.8615 94.3294C63.8615 94.3294 61.3175 94.1662 61.0351 96.1316C60.7518 98.0981 65.6982 98.0981 67.5359 96.6232L63.8615 94.3294Z" fill="#FFC6B2"/>
<path fill-rule="evenodd" clip-rule="evenodd" d="M65.1331 96.1317C64.6498 92.5793 61.3851 89.9381 61.5478 86.4768C63.1127 86.4912 64.1176 84.2439 63.4055 82.3229C63.1251 81.5683 62.6504 80.9224 62.347 80.1778C62.0445 79.4342 61.9641 78.4599 62.4283 78.0393C62.6484 77.8406 62.9461 77.8062 63.2313 77.7729C65.5514 77.4966 69.5263 78.3034 71.6616 77.3856C73.6945 76.5122 75.8729 74.8132 75.6614 71.9256C75.4767 69.4109 73.5615 67.3722 71.8023 65.8319C70.7945 64.9485 67.9145 62.6391 66.8282 62.8488C65.1695 63.1685 64.7675 65.7342 64.6479 67.8816C63.4878 66.6009 61.7765 66.8063 60.7677 67.8483C59.7589 68.8904 59.2813 70.5461 58.842 72.1442C58.4017 73.7434 57.9356 75.4036 56.9402 76.4656C56.0128 77.4555 54.5455 78.2046 54.7379 79.8881C54.9666 81.8946 57.2273 82.6081 58.2725 84.3194C58.015 83.8999 57.7968 86.5789 57.9452 87.0328C58.3912 88.4011 59.5043 89.3067 60.3093 90.3532C62.0235 92.5838 62.8619 94.8299 65.1331 96.1317Z" fill="#22343D"/>
<path fill-rule="evenodd" clip-rule="evenodd" d="M79.3456 88.0089L73.5493 91.4847C73.5493 91.4847 80.5114 97.3442 79.3456 88.0089Z" fill="white"/>
<path fill-rule="evenodd" clip-rule="evenodd" d="M71.3706 89.3869C71.6874 90.0838 71.2185 91.0915 70.3236 91.6375C69.4286 92.1835 68.4466 92.0614 68.1298 91.3645C67.814 90.6676 68.282 89.661 69.1769 89.1139C70.0728 88.5679 71.0538 88.69 71.3706 89.3869Z" fill="#FFB2A0"/>
<path fill-rule="evenodd" clip-rule="evenodd" d="M79.8335 82.6834C80.1503 83.3803 79.6813 84.388 78.7864 84.934C77.8915 85.48 76.9095 85.3579 76.5927 84.661C76.2769 83.9641 76.7449 82.9564 77.6398 82.4104C78.5357 81.8644 79.5167 81.9865 79.8335 82.6834Z" fill="#FFB2A0"/>
<path fill-rule="evenodd" clip-rule="evenodd" d="M75.2987 87.7625C75.2719 87.7237 75.38 87.5583 75.6308 87.3486C75.8701 87.1344 76.2864 86.9035 76.5956 86.5174C76.9019 86.1434 77.0119 85.3632 76.5429 85.2533C76.0558 85.0613 75.5025 85.7094 74.868 86.3254C74.711 86.4763 74.556 86.6261 74.4019 86.7737C74.2583 86.9269 73.9558 87.151 73.6419 87.1055C73.0437 86.9934 72.7891 86.5307 72.5594 86.221C72.1 85.5374 71.8167 84.8216 71.6597 84.2024C71.3487 82.9506 71.4884 82.1427 71.5631 82.1493C71.6674 82.1438 71.7018 82.9206 72.0971 84.0215C72.2962 84.5686 72.5939 85.1901 73.0274 85.7771C73.239 86.0746 73.505 86.352 73.6946 86.3609C73.774 86.3653 73.8362 86.3342 73.9855 86.1889C74.1377 86.0413 74.2908 85.8914 74.4459 85.7405C74.7656 85.4409 75.0422 85.1379 75.4078 84.856C75.7629 84.5786 76.2692 84.4033 76.7229 84.5819C77.2072 84.7295 77.4914 85.3843 77.4072 85.8393C77.3527 86.3032 77.1536 86.645 76.9277 86.8947C76.4501 87.3574 76.0232 87.4695 75.7543 87.6094C75.4786 87.7303 75.3274 87.8058 75.2987 87.7625Z" fill="#22343D"/>
<path fill-rule="evenodd" clip-rule="evenodd" d="M73.8613 100.849C73.8613 100.849 77.5587 100.873 79.5648 99.4408C79.5648 99.4408 77.8678 101.858 74.472 102.484L73.8613 100.849Z" fill="#FFA192"/>
<path fill-rule="evenodd" clip-rule="evenodd" d="M75.4642 81.6241C75.4307 81.836 74.9139 81.9015 74.3674 82.1812C73.8132 82.4408 73.4131 82.8259 73.259 82.7061C73.1011 82.6095 73.3624 81.8438 74.1109 81.4787C74.8584 81.1113 75.513 81.4243 75.4642 81.6241Z" fill="#22343D"/>
<path fill-rule="evenodd" clip-rule="evenodd" d="M68.2179 87.1349C68.0782 87.015 68.2973 86.3247 68.8295 85.6333C69.3684 84.9275 70.0565 84.6923 70.1293 84.8898C70.2058 85.0818 69.7866 85.529 69.3148 86.1494C68.8352 86.7675 68.3691 87.2658 68.2179 87.1349Z" fill="#22343D"/>
<path fill-rule="evenodd" clip-rule="evenodd" d="M65.4104 86.0694C65.1108 85.812 64.8773 84.71 66.0239 83.2251C67.181 81.707 68.4741 81.9744 68.6292 82.3961C68.7957 82.8101 68.365 83.3994 67.3495 84.7344C66.3187 86.065 65.7348 86.3513 65.4104 86.0694Z" fill="#22343D"/>
<path fill-rule="evenodd" clip-rule="evenodd" d="M71.4964 80.2204C71.3308 79.8609 71.5136 78.8144 73.0048 78.0853C74.517 77.3317 75.5249 78.1629 75.5105 78.5946C75.5076 79.0241 74.9381 79.3249 73.6097 79.9885C72.2716 80.6399 71.6753 80.6122 71.4964 80.2204Z" fill="#22343D"/>
<path fill-rule="evenodd" clip-rule="evenodd" d="M389.557 90.6305C389.655 90.7425 388.049 92.8378 384.716 95.1194C381.424 97.3989 376.245 99.6584 370.288 99.7094C364.331 99.7605 359.124 97.5898 355.803 95.3669C352.443 93.143 350.81 91.0744 350.906 90.9601C351.045 90.757 352.871 92.5015 356.236 94.4114C359.569 96.3291 364.592 98.2323 370.278 98.1846C375.966 98.1347 380.963 96.146 384.272 94.1717C387.611 92.2041 389.416 90.4285 389.557 90.6305Z" fill="#22343D"/>
<path fill-rule="evenodd" clip-rule="evenodd" d="M353.215 87.4655C353.124 87.6975 351.346 86.8419 348.35 86.0672C346.857 85.6588 345.045 85.3437 343.028 85.0529C341.002 84.7932 338.764 84.5868 336.4 84.3915C334.035 84.1995 331.771 83.9787 329.715 83.6835C327.659 83.3672 325.812 82.991 324.29 82.5138C321.235 81.5894 319.505 80.4951 319.565 80.3409C319.644 80.1078 321.464 80.8281 324.489 81.4595C325.999 81.7936 327.82 82.0521 329.848 82.2863C331.881 82.5016 334.127 82.678 336.494 82.8711C338.864 83.0664 341.132 83.3184 343.186 83.6602C345.239 84.0342 347.08 84.4692 348.587 85.0241C351.612 86.095 353.283 87.3202 353.215 87.4655Z" fill="#22343D"/>
<mask id="mask0_1386_1634" style="mask-type:luminance" maskUnits="userSpaceOnUse" x="305" y="28" width="120" height="69">
<path fill-rule="evenodd" clip-rule="evenodd" d="M305.175 28.6721H424.505V96.4606H305.175V28.6721Z" fill="white"/>
</mask>
<g mask="url(#mask0_1386_1634)">
<path fill-rule="evenodd" clip-rule="evenodd" d="M317.178 42.4027C322.857 41.0055 328.742 42.2084 334.468 43.3149C340.195 44.4213 346.141 45.419 351.74 43.6367C361.849 40.4195 369.523 28.5773 380.007 28.6727C384.323 28.7115 388.392 30.8489 392.597 31.9798C397.82 33.3847 403.26 33.2338 408.55 34.2359C413.841 35.238 419.306 37.705 422.296 42.8643C425.843 48.9869 424.87 57.623 421.148 63.6046C417.426 69.5874 411.465 73.2296 405.358 75.2937C401.098 76.7331 396.559 77.5654 392.872 80.4297C389.143 83.3273 386.708 87.9905 383.234 91.2854C374.516 99.552 360.948 97.1827 351.942 89.3411C349.679 87.3713 347.582 85.0852 345.04 83.6436C334.701 77.7752 319.83 85.5435 310.925 74.8665C301.882 64.023 303.17 45.8474 317.178 42.4027Z" fill="#22343D"/>
</g>
<path fill-rule="evenodd" clip-rule="evenodd" d="M314.341 252.402C314.341 252.402 323.815 275.946 324.923 271.586C326.029 267.225 325.663 256.755 325.07 255.26C324.473 253.765 320.601 247.161 320.601 247.161L314.341 252.402Z" fill="#FFB2A0"/>
<path fill-rule="evenodd" clip-rule="evenodd" d="M382.843 62.0191C383.72 63.3209 383.134 61.9226 384.127 63.8003C388.252 63.6339 391.021 59.5866 391.021 59.5866C391.021 59.5866 397.568 59.7874 397.493 58.4313C397.418 57.0729 391.216 57.5801 391.216 57.5801C391.216 57.5801 397.777 55.1908 397.417 53.9978C397.059 52.8059 389.485 56.608 389.485 56.608C389.485 56.608 397.128 51.1069 395.999 50.2246C394.87 49.3446 387.516 54.1465 387.516 54.1465C387.516 54.1465 393.907 48.0595 392.949 47.2749C391.993 46.4903 383.127 54.4128 383.127 54.4128C383.257 50.5154 380.846 50.6519 380.846 50.6519L380.945 60.1681C380.945 60.1681 382.439 61.4199 382.843 62.0191Z" fill="#FFC6B2"/>
<path fill-rule="evenodd" clip-rule="evenodd" d="M285.788 18.9491C284.387 19.2487 285.473 18.6839 283.655 19.3275C280.667 16.0249 281.064 10.8345 281.064 10.8345C281.064 10.8345 276.054 5.94491 276.885 4.98941C277.721 4.03169 282.067 9.18542 282.067 9.18542C282.067 9.18542 278.53 2.34707 279.482 1.73226C280.432 1.11745 283.921 9.79135 283.921 9.79135C283.921 9.79135 281.354 -0.20649 282.703 0.00325462C284.051 0.212999 286.802 9.46397 286.802 9.46397C286.802 9.46397 285.508 -0.00673322 286.671 0.143084C287.835 0.291792 289.93 13.0418 289.93 13.0418C292.065 10.0277 293.789 11.9865 293.789 11.9865L288.378 18.8858C288.378 18.8858 286.432 18.8126 285.788 18.9491Z" fill="#FFC6B2"/>
<path fill-rule="evenodd" clip-rule="evenodd" d="M319.772 58.6993C317.961 58.3542 313.58 61.7301 311.388 67.2323C310.161 70.3119 309.317 73.4403 310.725 78.4486C311.388 80.8047 312.776 81.0999 313.086 82.1552C313.477 83.4914 312.181 87.7029 312.181 87.7029L317.352 90.1244C317.688 87.2313 318.069 84.3204 320.612 83.0641C321.563 82.5936 322.581 82.2962 323.479 81.6991C325.902 80.0889 327.196 76.5665 328.191 73.6822C328.934 71.5282 324.315 59.5627 319.772 58.6993Z" fill="#FFC6B2"/>
<path fill-rule="evenodd" clip-rule="evenodd" d="M313.617 140.47L304.953 136.439C304.953 136.439 279.241 191.724 279.348 207.064C279.455 222.402 314.662 253.112 314.662 253.112L320.6 247.161C320.6 247.161 309.73 225.185 303.92 217.436C298.108 209.686 313.617 140.47 313.617 140.47Z" fill="#FFB2A0"/>
<path fill-rule="evenodd" clip-rule="evenodd" d="M356.634 203.448C356.634 203.448 375.73 192.943 371.893 192.015C368.055 191.092 359.082 192.365 357.846 193.172C356.608 193.981 351.247 198.992 351.247 198.992L356.634 203.448Z" fill="#FFC6B2"/>
<path fill-rule="evenodd" clip-rule="evenodd" d="M322.128 139.991L308.984 145.535C308.984 145.535 295.838 212.582 300.857 223.108C305.874 233.639 319.969 226.671 340.044 213.967L356.858 203.325L351.246 198.993C351.246 198.993 331.68 203.439 326.185 207.871C326.185 207.871 329.052 198.451 332.876 185.152C336.699 171.853 339.336 158.277 322.128 139.991Z" fill="#FFC6B2"/>
<path fill-rule="evenodd" clip-rule="evenodd" d="M305.95 94.3132C305.95 89.8586 307.187 86.637 311.029 86.637C314.871 86.637 320.182 88.1984 320.182 92.6541C320.182 97.1109 317.154 104.345 313.31 104.345C309.469 104.345 305.95 98.77 305.95 94.3132Z" fill="#FFC6B2"/>
<path fill-rule="evenodd" clip-rule="evenodd" d="M308.984 85.9987C308.984 85.9987 297.037 71.008 294.647 56.3226C292.256 41.6393 288.196 17.8116 288.196 17.8116L283.655 19.3276C283.655 19.3276 281.504 51.8913 283.655 56.8774C285.805 61.8647 296.313 95.0665 299.513 103.786L308.984 85.9987Z" fill="#FFC6B2"/>
<path fill-rule="evenodd" clip-rule="evenodd" d="M321.818 97.6821C321.818 97.6821 322.737 93.0189 337.844 86.681C352.951 80.3443 381.452 59.8037 381.452 59.8037L384.296 63.5758C384.296 63.5758 368.81 84.3161 359.801 87.9539C350.791 91.5928 331.656 105.936 329.687 107.084C326.709 108.821 326.746 111.006 321.818 97.6821Z" fill="#FFC6B2"/>
<path fill-rule="evenodd" clip-rule="evenodd" d="M308.983 85.9985C308.983 85.9985 296.845 90.5597 296.845 111.975C296.845 111.975 296.853 141.305 299.714 146.64C299.714 146.64 304.364 148.022 310.163 146.64C316.242 145.191 322.126 139.991 322.126 139.991L331.675 106.754L330.533 91.1822L317.551 88.2758C317.551 88.2758 321.275 108.455 307.8 99.7795C305.182 98.0938 311.653 86.6455 311.653 86.6455L308.983 85.9985Z" fill="#4DADF7"/>
<path fill-rule="evenodd" clip-rule="evenodd" d="M298.714 103.415L292.733 88.9673C292.733 88.9673 293.59 80.2024 304.571 77.0618C304.571 77.0618 305.681 81.4797 306.898 83.1677C308.115 84.8545 311.658 86.6501 311.658 86.6501L298.714 103.415Z" fill="#22343D"/>
<path fill-rule="evenodd" clip-rule="evenodd" d="M321.325 109.223L340.344 104.703C340.344 104.703 343.651 96.7592 335.81 87.3096C335.81 87.3096 320.975 88.3483 319.055 88.5336C317.165 88.7156 318.462 90.4036 318.462 90.4036L321.325 109.223Z" fill="#22343D"/>
<path fill-rule="evenodd" clip-rule="evenodd" d="M299.684 139.496C299.684 139.496 281.695 178.059 278.723 184.95C278.723 184.95 331.794 213.217 353.338 179.192C353.338 179.192 341.083 149.118 322.137 137.668L313.965 134.831L300.003 139.311" fill="#4DADF7"/>
<path fill-rule="evenodd" clip-rule="evenodd" d="M327.495 73.3176C327.495 73.3176 329.545 70.9416 330.805 72.5863C332.066 74.2309 326.235 76.6069 326.235 76.6069L327.495 73.3176Z" fill="#FFC6B2"/>
<path fill-rule="evenodd" clip-rule="evenodd" d="M364.977 40.9128C364.997 40.9949 364.206 41.3922 362.695 41.8083C361.187 42.2289 358.95 42.6107 356.172 42.6762C353.395 42.7405 350.093 42.4542 346.479 41.886C342.862 41.33 338.933 40.5133 334.799 39.9906C330.672 39.479 326.704 39.3857 323.19 40.0438C319.674 40.6908 316.631 42.0259 314.306 43.5851C311.98 45.1565 310.361 46.8999 309.368 48.2194C308.369 49.54 307.919 50.3835 307.817 50.3124C307.762 50.2791 308.062 49.3292 308.968 47.8488C309.868 46.3728 311.455 44.4252 313.823 42.664C316.189 40.9139 319.334 39.4101 322.989 38.6577C326.648 37.8942 330.74 37.953 334.939 38.4746C339.142 39.0062 343.076 39.8696 346.65 40.4955C350.224 41.1336 353.455 41.5242 356.175 41.5975C361.627 41.7739 364.928 40.652 364.977 40.9128Z" fill="#22343D"/>
<path fill-rule="evenodd" clip-rule="evenodd" d="M317.06 71.9689C317.054 72.0622 316.47 72.1276 315.579 71.7847C315.359 71.6948 315.099 71.5772 314.857 71.3197C314.737 71.191 314.626 71.0201 314.558 70.8148C314.46 70.5274 314.468 70.2011 314.565 69.9525C314.593 69.9026 314.591 69.7838 314.648 69.7816L314.821 69.7749C314.932 69.7572 315.063 69.7994 315.192 69.8271C315.427 69.8793 315.503 69.8715 315.67 69.8848C315.964 69.8926 316.268 69.8571 316.573 69.7794C317.817 69.4753 318.65 68.4255 319.023 67.5621C319.414 66.6931 319.449 66.0395 319.553 66.0473C319.627 66.0362 319.772 66.7309 319.449 67.7796C319.284 68.2934 318.998 68.8827 318.536 69.3998C318.076 69.9159 317.44 70.3398 316.717 70.5229C316.356 70.6161 315.994 70.6516 315.644 70.6306C315.492 70.6217 315.253 70.5862 315.183 70.5684C315.119 70.5562 315.126 70.5396 315.114 70.5484C315.106 70.5573 315.102 70.5717 315.103 70.5928C315.129 70.6927 315.176 70.7881 315.242 70.8736C315.375 71.0478 315.569 71.1777 315.757 71.2864C316.528 71.7248 317.074 71.8546 317.06 71.9689Z" fill="#22343D"/>
<path fill-rule="evenodd" clip-rule="evenodd" d="M312.793 72.2258L319.8 75.4264C319.8 75.4264 313.642 80.3493 312.793 72.2258Z" fill="white"/>
<path fill-rule="evenodd" clip-rule="evenodd" d="M322.792 73.766C322.543 74.3142 321.771 74.4097 321.068 73.9802C320.364 73.5518 319.996 72.7594 320.244 72.2123C320.493 71.6641 321.265 71.5676 321.968 71.997C322.672 72.4265 323.04 73.2178 322.792 73.766Z" fill="#FFB2A0"/>
<path fill-rule="evenodd" clip-rule="evenodd" d="M314.972 68.9588C314.76 69.527 313.997 69.6913 313.268 69.3251C312.538 68.9588 312.118 68.202 312.331 67.6338C312.542 67.0656 313.306 66.9013 314.035 67.2676C314.764 67.6338 315.185 68.3906 314.972 68.9588Z" fill="#FFB2A0"/>
<path fill-rule="evenodd" clip-rule="evenodd" d="M312.376 81.1348C312.376 81.1348 314.832 83.5196 317.395 82.7517C317.395 82.7517 316.511 84.2876 313.111 83.7238C313.111 83.7238 313.393 82.0315 312.376 81.1348Z" fill="#FFA192"/>
<path fill-rule="evenodd" clip-rule="evenodd" d="M322.119 68.6639C322.119 69.019 321.87 69.3076 321.564 69.3076C321.258 69.3076 321.009 69.019 321.009 68.6639C321.009 68.3088 321.258 68.0203 321.564 68.0203C321.87 68.0203 322.119 68.3088 322.119 68.6639Z" fill="#22343D"/>
<path fill-rule="evenodd" clip-rule="evenodd" d="M317.577 66.767C317.577 67.1221 317.328 67.4106 317.022 67.4106C316.716 67.4106 316.468 67.1221 316.468 66.767C316.468 66.4118 316.716 66.1233 317.022 66.1233C317.328 66.1233 317.577 66.4118 317.577 66.767Z" fill="#22343D"/>
<path fill-rule="evenodd" clip-rule="evenodd" d="M323.903 66.9495C323.732 67.0338 323.401 66.5689 322.899 66.1927C322.408 65.7998 321.91 65.6233 321.911 65.408C321.895 65.2016 322.59 65.0341 323.265 65.559C323.94 66.0806 324.074 66.8874 323.903 66.9495Z" fill="#22343D"/>
<path fill-rule="evenodd" clip-rule="evenodd" d="M315.898 63.8267C315.886 63.6258 316.482 63.3728 317.281 63.3972C318.093 63.4172 318.693 63.8744 318.61 64.0653C318.534 64.2584 317.968 64.1752 317.255 64.1596C316.538 64.1352 315.909 64.0453 315.898 63.8267Z" fill="#22343D"/>
<path fill-rule="evenodd" clip-rule="evenodd" d="M318.398 261.968C318.398 261.968 321.313 273.963 324.322 272.981C327.331 272 325.069 255.26 325.069 255.26L322.066 249.758C322.066 249.758 324.887 277.778 318.398 261.968Z" fill="#22343D"/>
<path fill-rule="evenodd" clip-rule="evenodd" d="M355.149 195.473C355.149 195.473 357.268 192.791 359.837 192.345C362.407 191.898 371.59 190.632 372.939 192.047C374.288 193.462 365.495 198.206 365.495 198.206C365.495 198.206 368.559 195.942 367.287 195.101C365.039 193.61 355.149 195.473 355.149 195.473Z" fill="#22343D"/>
<path fill-rule="evenodd" clip-rule="evenodd" d="M351.505 198.684L354.38 205.452L355.949 204.442L352.115 197.775L351.505 198.684Z" fill="#22343D"/>
<path fill-rule="evenodd" clip-rule="evenodd" d="M319.355 244.447L312.297 251.823L314.388 253.844L320.313 246.367L319.355 244.447Z" fill="#22343D"/>
<path fill-rule="evenodd" clip-rule="evenodd" d="M171.8 171.023C169.793 165.248 169.022 158.818 166.027 153.649C161.717 146.213 153.439 142.523 149.942 134.533C148.456 131.139 147.99 127.257 147.975 123.452C147.946 115.923 149.89 107.92 154.905 103.135C160.668 97.6376 169.315 97.7142 176.064 101.407C182.812 105.101 187.968 111.805 192.352 118.807C196.736 125.809 200.574 133.323 205.679 139.633C209.465 144.312 213.955 148.347 216.806 153.844C224.623 168.913 216.58 187.98 202.78 193.419C190.655 198.196 175.995 183.097 171.8 171.023Z" fill="#22343D"/>
<path fill-rule="evenodd" clip-rule="evenodd" d="M154.526 277.305C155.727 278.449 154.417 277.656 156.163 278.975C155.774 284.032 151.739 287.218 151.739 287.218C151.739 287.218 151.569 295.269 150.273 295.104C148.974 294.941 149.806 287.351 149.806 287.351C149.806 287.351 147.15 295.282 146.026 294.777C144.904 294.274 148.969 285.174 148.969 285.174C148.969 285.174 143.271 294.268 142.488 292.835C141.706 291.402 146.72 282.626 146.72 282.626C146.72 282.626 140.529 290.152 139.829 288.934C139.13 287.719 147.218 277.251 147.218 277.251C143.475 277.204 143.74 274.25 143.74 274.25L152.857 274.877C152.857 274.877 153.974 276.776 154.526 277.305Z" fill="#FFC6B2"/>
<path fill-rule="evenodd" clip-rule="evenodd" d="M241.628 125.458C243.189 125.775 241.978 125.176 244.002 125.858C247.327 122.356 246.886 116.852 246.886 116.852C246.886 116.852 252.462 111.668 251.537 110.654C250.607 109.639 245.77 115.102 245.77 115.102C245.77 115.102 249.706 107.852 248.647 107.2C247.59 106.548 243.707 115.746 243.707 115.746C243.707 115.746 246.564 105.145 245.062 105.366C243.563 105.59 240.501 115.399 240.501 115.399C240.501 115.399 241.94 105.356 240.645 105.515C239.35 105.673 237.253 118.829 237.253 118.829C234.2 115.948 232.063 117.792 232.063 117.792L238.746 125.39C238.746 125.39 240.912 125.313 241.628 125.458Z" fill="#FFC6B2"/>
<path fill-rule="evenodd" clip-rule="evenodd" d="M203.459 169.428C206.279 168.918 214.881 175.381 212.692 188.506C212.509 189.608 211.268 192.034 210.959 193.037C210.568 194.308 213.611 198.959 213.611 198.959L205.756 201.869C205.421 199.118 205.985 195.097 203.446 193.902C202.497 193.455 201.48 193.172 200.584 192.605C198.166 191.073 196.875 187.723 195.881 184.981C195.139 182.931 194.575 180.727 194.596 178.503C194.647 172.903 198.925 170.25 203.459 169.428Z" fill="#FFC6B2"/>
<path fill-rule="evenodd" clip-rule="evenodd" d="M219.188 205.375C219.188 200.651 217.896 198.847 213.62 198.847C209.343 198.847 203.698 200.651 203.698 205.375C203.698 210.1 206.718 216.013 210.996 216.013C215.272 216.013 219.188 210.1 219.188 205.375Z" fill="#FFC6B2"/>
<path fill-rule="evenodd" clip-rule="evenodd" d="M215.811 196.557C215.811 196.557 229.108 180.661 231.768 165.089C234.428 149.518 238.948 124.251 238.948 124.251L244.001 125.858C244.001 125.858 246.396 160.389 244.001 165.677C241.609 170.966 228.043 207.692 228.31 217.092L215.811 196.557Z" fill="#FFC6B2"/>
<path fill-rule="evenodd" clip-rule="evenodd" d="M192.108 204.254C192.108 204.254 187.587 205.135 180.671 223.352C173.756 241.568 152.479 275.48 152.479 275.48L155.938 279.172C155.938 279.172 176.682 261.251 180.671 250.381C184.66 239.511 189.713 225.997 192.108 226.583C194.501 227.172 204.608 211.01 192.108 204.254Z" fill="#FFC6B2"/>
<path fill-rule="evenodd" clip-rule="evenodd" d="M227.708 219.521L233.9 199.706C233.9 199.706 232.945 190.413 220.724 187.082L213.801 198.646L227.708 219.521Z" fill="#22343D"/>
<path fill-rule="evenodd" clip-rule="evenodd" d="M194.173 202.734C194.173 202.734 186.868 203.447 180.947 218.526C180.947 218.526 187.459 228.949 192.222 229.3C192.222 229.3 209.914 211.766 194.173 202.734Z" fill="#22343D"/>
<path fill-rule="evenodd" clip-rule="evenodd" d="M214.243 381.546C214.243 381.546 203.699 406.512 202.466 401.89C201.235 397.266 201.642 386.162 202.302 384.577C202.965 382.991 207.276 375.989 207.276 375.989L214.243 381.546Z" fill="#FFC6B2"/>
<path fill-rule="evenodd" clip-rule="evenodd" d="M215.049 262.852L224.692 258.577C224.692 258.577 253.309 317.203 253.191 333.469C253.072 349.733 213.886 382.3 213.886 382.3L207.276 375.988C207.276 375.988 225.85 344.325 232.317 336.108C235.551 331.999 212.398 311.861 208.891 292.484C205.385 273.108 215.049 262.852 215.049 262.852Z" fill="#22343D"/>
<path fill-rule="evenodd" clip-rule="evenodd" d="M157.07 368.467C157.07 368.467 137.346 385.325 138.166 380.594C138.99 375.858 143.955 366.195 145.2 365.119C146.447 364.046 153.182 360.002 153.182 360.002L157.07 368.467Z" fill="#FFC6B2"/>
<path fill-rule="evenodd" clip-rule="evenodd" d="M188.813 283.612L217.343 264.441C217.343 264.441 218.475 331.035 211.626 345.435C204.778 359.834 156.441 368.956 156.441 368.956L153.182 360.002C153.182 360.002 183.003 339.401 192.159 335.369C201.316 331.335 188.813 283.612 188.813 283.612Z" fill="#22343D"/>
<path fill-rule="evenodd" clip-rule="evenodd" d="M205.804 251.327C205.804 251.327 184.797 259.951 188.813 283.612C192.828 307.272 199.521 311.708 199.521 311.708L211.568 288.788L223.664 258.772L211.568 256.993L205.804 251.327Z" fill="#22343D"/>
<path fill-rule="evenodd" clip-rule="evenodd" d="M215.811 196.557C215.811 196.557 231.277 206.607 231.277 229.317C231.277 229.317 229.312 255.206 226.128 260.863C226.128 260.863 220.952 262.329 214.498 260.863C207.731 259.327 201.183 253.812 201.183 253.812L195.897 222.115L191.786 203.608L194.015 202.756L205.647 201.274C205.647 201.274 203.975 221.421 216.964 211.416C219.699 209.309 213.558 198.804 213.558 198.804L215.811 196.557Z" fill="#F03E3D"/>
<path fill-rule="evenodd" clip-rule="evenodd" d="M225.278 110.743L257.705 132.677L275.946 92.7275L245.545 73.1447L225.278 110.743Z" fill="#F03E3D"/>
<path fill-rule="evenodd" clip-rule="evenodd" d="M270.389 301.976L293.581 285.33L274.421 246.551L253.221 262.491L270.389 301.976Z" fill="#02897A"/>
<path fill-rule="evenodd" clip-rule="evenodd" d="M169.518 82.2565L181.223 73.9399L171.552 54.5662L160.853 62.5296L169.518 82.2565Z" fill="#740A76"/>
<path fill-rule="evenodd" clip-rule="evenodd" d="M156.199 136.733C156.26 136.67 156.976 137.424 158.108 138.961C159.236 140.5 160.774 142.84 162.318 145.999C163.867 149.144 165.4 153.134 166.495 157.767C167.629 162.364 168.389 167.532 170.131 172.511C171.035 174.97 172.131 177.26 173.435 179.284C174.752 181.295 176.211 183.059 177.714 184.598C180.784 187.595 184.001 189.656 186.868 190.846C189.731 192.054 192.184 192.595 193.89 192.79C195.594 193.008 196.557 193.04 196.557 193.17C196.562 193.251 195.602 193.421 193.853 193.382C192.104 193.367 189.559 192.979 186.561 191.865C183.562 190.766 180.173 188.733 176.932 185.672C175.342 184.098 173.797 182.276 172.406 180.182C171.025 178.075 169.86 175.667 168.913 173.089C167.098 167.885 166.382 162.672 165.326 158.135C164.318 153.583 162.917 149.665 161.5 146.514C160.092 143.353 158.695 140.957 157.704 139.323C156.708 137.693 156.124 136.81 156.199 136.733Z" fill="#22343D"/>
<path fill-rule="evenodd" clip-rule="evenodd" d="M196.04 111.073C196.278 111.031 196.51 114.732 198.296 120.206C199.188 122.933 200.515 126.07 202.42 129.215C203.372 130.79 204.468 132.341 205.709 133.887C206.941 135.44 208.282 137.017 209.551 138.786C212.094 142.356 213.843 146.214 215.491 149.62C217.126 153.059 218.429 156.331 219.091 159.257C219.782 162.175 219.822 164.686 219.603 166.352C219.375 168.026 219.016 168.874 218.956 168.85C218.842 168.816 219.028 167.92 219.093 166.299C219.15 164.68 218.972 162.32 218.199 159.563C217.453 156.794 216.11 153.673 214.434 150.307C212.732 146.942 210.967 143.161 208.538 139.759C207.319 138.057 205.996 136.485 204.756 134.894C203.51 133.31 202.377 131.661 201.421 130.011C199.503 126.707 198.222 123.414 197.42 120.568C196.6 117.722 196.251 115.321 196.085 113.666C195.921 112.008 195.965 111.081 196.04 111.073Z" fill="#22343D"/>
<path fill-rule="evenodd" clip-rule="evenodd" d="M205.981 183.695C205.969 183.588 206.497 183.491 206.996 182.811C207.11 182.655 207.226 182.426 207.224 182.293C207.221 182.15 207.135 181.901 206.987 181.758C206.833 181.598 206.662 181.521 206.436 181.547C206.202 181.567 205.918 181.702 205.547 181.766C204.733 181.891 204.098 181.359 203.681 180.927C203.252 180.473 202.925 180.013 202.681 179.6C202.195 178.769 202.043 178.168 202.118 178.124C202.204 178.071 202.497 178.568 203.046 179.265C203.319 179.611 203.665 180.008 204.073 180.391C204.475 180.763 204.967 181.101 205.458 181.011C205.718 180.973 206.021 180.832 206.391 180.803C206.767 180.759 207.185 180.96 207.415 181.26C207.659 181.566 207.796 181.927 207.767 182.354C207.694 182.791 207.494 182.996 207.329 183.187C206.614 183.912 205.958 183.794 205.981 183.695Z" fill="#22343D"/>
<path fill-rule="evenodd" clip-rule="evenodd" d="M209.813 184.32L203.585 186.946C203.585 186.946 208.869 192.306 209.813 184.32Z" fill="white"/>
<path fill-rule="evenodd" clip-rule="evenodd" d="M202.963 183.873C203.212 184.421 202.844 185.214 202.14 185.642C201.437 186.072 200.665 185.976 200.417 185.428C200.168 184.881 200.536 184.089 201.24 183.659C201.943 183.23 202.715 183.325 202.963 183.873Z" fill="#FFB2A0"/>
<path fill-rule="evenodd" clip-rule="evenodd" d="M210.347 179.484C210.55 180.056 210.12 180.804 209.386 181.156C208.651 181.509 207.89 181.33 207.686 180.758C207.482 180.185 207.913 179.437 208.648 179.085C209.382 178.733 210.143 178.911 210.347 179.484Z" fill="#FFB2A0"/>
<path fill-rule="evenodd" clip-rule="evenodd" d="M203.769 194.094C203.769 194.094 205.853 194.586 208.509 193.817C208.509 193.817 207.199 195.292 205.06 195.635C205.06 195.635 204.581 194.607 203.769 194.094Z" fill="#FFA192"/>
<path fill-rule="evenodd" clip-rule="evenodd" d="M205.898 177.862C206.132 178.092 206.16 178.498 205.962 178.769C205.764 179.04 205.415 179.073 205.18 178.843C204.947 178.615 204.918 178.209 205.116 177.937C205.314 177.666 205.664 177.633 205.898 177.862Z" fill="#22343D"/>
<path fill-rule="evenodd" clip-rule="evenodd" d="M201.713 180.654C201.946 180.884 201.975 181.29 201.777 181.561C201.58 181.831 201.23 181.865 200.995 181.635C200.762 181.405 200.733 181 200.931 180.728C201.129 180.457 201.479 180.424 201.713 180.654Z" fill="#22343D"/>
<path fill-rule="evenodd" clip-rule="evenodd" d="M205.923 175.176C205.868 175.383 205.348 175.375 204.776 175.576C204.2 175.755 203.763 176.082 203.621 175.941C203.475 175.823 203.814 175.1 204.596 174.842C205.376 174.581 205.993 174.985 205.923 175.176Z" fill="#22343D"/>
<path fill-rule="evenodd" clip-rule="evenodd" d="M198.693 180.239C198.553 180.119 198.772 179.429 199.305 178.738C199.843 178.033 200.532 177.797 200.603 177.994C200.681 178.186 200.261 178.633 199.789 179.253C199.31 179.872 198.844 180.371 198.693 180.239Z" fill="#22343D"/>
<path fill-rule="evenodd" clip-rule="evenodd" d="M196.344 185.601C196.344 185.601 194.346 183.655 193.387 185.416C192.429 187.176 197.702 188.102 197.702 188.102L196.344 185.601Z" fill="#FFC6B2"/>
<path fill-rule="evenodd" clip-rule="evenodd" d="M148.314 362.989C148.314 362.989 145.451 364.433 144.704 365.3C143.957 366.165 137.108 379.88 137.98 381.612C138.852 383.344 145.72 377.464 145.72 377.464C145.72 377.464 139.973 378.725 148.314 362.989Z" fill="#22343D"/>
<path fill-rule="evenodd" clip-rule="evenodd" d="M204.195 381.124C204.195 381.124 202.161 383.673 201.847 384.844C201.533 386.013 200.972 401.847 202.439 402.91C203.905 403.974 207.914 395.237 207.914 395.237C207.914 395.237 203.121 399.59 204.195 381.161" fill="#22343D"/>
</svg>
