<svg width="213" height="44" viewBox="0 0 213 44" fill="none" xmlns="http://www.w3.org/2000/svg">
<g clip-path="url(#clip0_1386_219)">
<path d="M75.1848 25.3427L73.9153 28.8217H73.8095C73.5979 28.0372 73.21 26.8434 72.5752 25.4109L65.7691 8.86824H59.104V35.2341H63.5121V18.9644C63.5121 17.9411 63.5121 16.7814 63.4768 15.3489C63.4416 14.6326 63.3711 14.0868 63.3358 13.6775H63.4416C63.6532 14.7008 63.9 15.4512 64.0764 15.9287L72.2578 35.1659H75.3611L83.472 15.7582C83.6484 15.3147 83.8247 14.4279 84.001 13.6775H84.1068C84.001 15.6217 83.9305 17.3613 83.8952 18.4186V35.1318H88.5855V8.80002H82.1672L75.1848 25.3427ZM93.0288 16.2357H97.6133V35.1318H93.0288V16.2357ZM95.3563 8.25428C94.5805 8.25428 93.9457 8.52715 93.4168 9.00467C92.8878 9.48219 92.6057 10.0961 92.6057 10.8465C92.6057 11.5628 92.8878 12.1768 93.4168 12.6543C93.9457 13.1318 94.5805 13.3706 95.3563 13.3706C96.1321 13.3706 96.8022 13.0977 97.2959 12.6543C97.8249 12.1768 98.107 11.5628 98.107 10.8465C98.107 10.1303 97.8249 9.5163 97.2959 9.00467C96.8374 8.52715 96.1674 8.25428 95.3563 8.25428ZM113.87 16.0651C113.024 15.8946 112.142 15.7923 111.296 15.7923C109.215 15.7923 107.311 16.2357 105.724 17.1225C104.137 18.0093 102.868 19.2372 102.057 20.7721C101.21 22.3411 100.787 24.1489 100.787 26.2295C100.787 28.0372 101.21 29.6403 102.021 31.107C102.832 32.5396 103.961 33.6992 105.477 34.4837C106.923 35.2682 108.616 35.6775 110.52 35.6775C112.707 35.6775 114.576 35.2341 116.057 34.4155L116.092 34.3814V30.2884L115.916 30.4248C115.246 30.9023 114.47 31.3116 113.694 31.5504C112.883 31.8233 112.142 31.9597 111.508 31.9597C109.674 31.9597 108.228 31.4481 107.205 30.3225C106.147 29.231 105.618 27.7303 105.618 25.8543C105.618 23.9101 106.147 22.3752 107.241 21.2496C108.334 20.1241 109.78 19.5442 111.543 19.5442C113.024 19.5442 114.54 20.0217 115.916 20.9768L116.092 21.1132V16.7814L116.057 16.7473C115.457 16.5085 114.787 16.2357 113.87 16.0651ZM128.999 15.9287C127.871 15.9287 126.813 16.2698 125.896 16.9861C125.12 17.6 124.591 18.4868 124.132 19.5442H124.097V16.2357H119.513V35.1318H124.097V25.4791C124.097 23.8419 124.45 22.4775 125.226 21.4884C126.002 20.4651 126.989 19.9535 128.188 19.9535C128.611 19.9535 129.034 20.0558 129.563 20.1241C130.057 20.2605 130.41 20.3969 130.656 20.5675L130.833 20.7039V16.2698L130.727 16.2357C130.41 16.031 129.775 15.9287 128.999 15.9287ZM141.483 15.8264C138.274 15.8264 135.699 16.7473 133.901 18.5551C132.067 20.3628 131.185 22.8527 131.185 25.9907C131.185 28.9241 132.102 31.3116 133.866 33.0512C135.629 34.7566 138.027 35.6434 141.024 35.6434C144.163 35.6434 146.667 34.7225 148.465 32.8806C150.299 31.0388 151.181 28.583 151.181 25.5473C151.181 22.5458 150.334 20.1582 148.606 18.4186C146.949 16.6791 144.516 15.8264 141.483 15.8264ZM145.15 30.3566C144.304 31.414 142.964 31.9256 141.306 31.9256C139.649 31.9256 138.309 31.414 137.357 30.2884C136.405 29.231 135.946 27.6961 135.946 25.752C135.946 23.7396 136.44 22.2047 137.357 21.1132C138.309 20.0217 139.614 19.476 141.271 19.476C142.893 19.476 144.163 19.9876 145.08 21.045C145.997 22.1023 146.49 23.6372 146.49 25.6496C146.42 27.6961 146.032 29.2992 145.15 30.3566ZM161.407 24.0806C159.962 23.5008 159.045 23.0574 158.622 22.6822C158.269 22.3411 158.093 21.8636 158.093 21.2496C158.093 20.738 158.304 20.2264 158.833 19.8853C159.362 19.5442 159.962 19.3737 160.843 19.3737C161.619 19.3737 162.43 19.5101 163.206 19.7147C163.982 19.9194 164.687 20.2264 165.251 20.6357L165.428 20.7721V16.6109L165.322 16.5768C164.793 16.3721 164.088 16.1675 163.241 15.9969C162.395 15.8605 161.619 15.7923 160.984 15.7923C158.798 15.7923 156.999 16.3039 155.589 17.4295C154.178 18.4868 153.508 19.9194 153.508 21.5907C153.508 22.4775 153.649 23.262 153.967 23.9101C154.284 24.5582 154.742 25.1721 155.377 25.6837C156.012 26.1613 156.929 26.707 158.198 27.2186C159.256 27.662 160.067 28.0031 160.561 28.276C161.055 28.5489 161.372 28.8558 161.619 29.0946C161.795 29.3675 161.901 29.7085 161.901 30.152C161.901 31.414 160.914 32.0279 158.904 32.0279C158.128 32.0279 157.317 31.8915 156.365 31.5845C155.412 31.2775 154.531 30.8341 153.79 30.3225L153.614 30.1861V34.5178L153.72 34.552C154.39 34.8589 155.201 35.0636 156.188 35.3023C157.176 35.4729 158.057 35.6093 158.833 35.6093C161.196 35.6093 163.135 35.0977 164.511 33.9721C165.921 32.8806 166.662 31.4822 166.662 29.6744C166.662 28.4124 166.309 27.2868 165.533 26.4341C164.511 25.6155 163.241 24.7628 161.407 24.0806ZM178.758 15.8264C175.549 15.8264 172.974 16.7473 171.176 18.5551C169.377 20.3628 168.46 22.8527 168.46 25.9907C168.46 28.9241 169.377 31.3116 171.141 33.0512C172.904 34.7566 175.302 35.6434 178.299 35.6434C181.438 35.6434 183.942 34.7225 185.74 32.8806C187.574 31.0388 188.456 28.583 188.456 25.5473C188.456 22.5458 187.609 20.1582 185.881 18.4186C184.224 16.6791 181.791 15.8264 178.758 15.8264ZM182.39 30.3566C181.544 31.414 180.204 31.9256 178.546 31.9256C176.854 31.9256 175.549 31.414 174.597 30.2884C173.644 29.231 173.186 27.6961 173.186 25.752C173.186 23.7396 173.68 22.2047 174.597 21.1132C175.549 20.0217 176.854 19.476 178.511 19.476C180.098 19.476 181.403 19.9876 182.32 21.045C183.236 22.1023 183.73 23.6372 183.73 25.6496C183.73 27.6961 183.272 29.2992 182.39 30.3566ZM212.965 19.8853V16.2357H208.345V10.6419L208.204 10.676L203.831 11.938L203.725 11.9721V16.2357H196.813V13.8481C196.813 12.7566 197.096 11.9039 197.589 11.3582C198.083 10.8124 198.824 10.5396 199.74 10.5396C200.375 10.5396 201.045 10.676 201.786 10.983L201.962 11.0853V7.23103L201.856 7.19692C201.222 6.99227 200.375 6.85583 199.282 6.85583C197.907 6.85583 196.708 7.16281 195.614 7.67444C194.521 8.25428 193.71 9.03878 193.111 10.0961C192.511 11.1194 192.194 12.2791 192.194 13.6093V16.2357H188.985V19.8512H192.194V35.1318H196.813V19.8853H203.725V29.6062C203.725 33.5969 205.665 35.6093 209.544 35.6093C210.179 35.6093 210.849 35.507 211.484 35.4047C212.154 35.2682 212.647 35.0977 212.93 34.9613L212.965 34.9272V31.2775L212.788 31.414C212.506 31.5845 212.259 31.721 211.836 31.8233C211.484 31.9256 211.166 31.9597 210.919 31.9597C210.003 31.9597 209.368 31.7551 208.909 31.2434C208.486 30.7659 208.275 29.9814 208.275 28.8217V19.8853H212.965Z" fill="#737373"/>
<path d="M0 0H21.6174V20.9085H0V0Z" fill="#F25022"/>
<path d="M23.874 0H45.4914V20.9085H23.874V0Z" fill="#7FBA00"/>
<path d="M0 23.0914H21.6174V44H0V23.0914Z" fill="#00A4EF"/>
<path d="M23.874 23.0914H45.4914V44H23.874V23.0914Z" fill="#FFB900"/>
</g>
<defs>
<clipPath id="clip0_1386_219">
<rect width="213" height="44" fill="white"/>
</clipPath>
</defs>
</svg>
