<svg width="54" height="55" viewBox="0 0 54 55" fill="none" xmlns="http://www.w3.org/2000/svg">
<rect x="0.206543" y="0.130615" width="53.242" height="54.6231" rx="26.621" fill="#F4F5F7"/>
<path d="M20.2065 16.1306H17.2065C16.9413 16.1306 16.687 16.236 16.4994 16.4235C16.3119 16.611 16.2065 16.8654 16.2065 17.1306V37.1306C16.2065 37.3958 16.3119 37.6502 16.4994 37.8377C16.687 38.0253 16.9413 38.1306 17.2065 38.1306H20.2065V16.1306Z" fill="#D6B1FF"/>
<path d="M22.2065 38.1306H32.2065V16.1306H22.2065V38.1306ZM27.2065 34.1306C26.9413 34.1306 26.687 34.0253 26.4994 33.8377C26.3119 33.6502 26.2065 33.3958 26.2065 33.1306C26.2065 32.8654 26.3119 32.611 26.4994 32.4235C26.687 32.236 26.9413 32.1306 27.2065 32.1306C27.4718 32.1306 27.7261 32.236 27.9137 32.4235C28.1012 32.611 28.2065 32.8654 28.2065 33.1306C28.2065 33.3958 28.1012 33.6502 27.9137 33.8377C27.7261 34.0253 27.4718 34.1306 27.2065 34.1306ZM27.2065 20.1306C27.4718 20.1306 27.7261 20.236 27.9137 20.4235C28.1012 20.611 28.2065 20.8654 28.2065 21.1306C28.2065 21.3958 28.1012 21.6502 27.9137 21.8377C27.7261 22.0253 27.4718 22.1306 27.2065 22.1306C26.9413 22.1306 26.687 22.0253 26.4994 21.8377C26.3119 21.6502 26.2065 21.3958 26.2065 21.1306C26.2065 20.8654 26.3119 20.611 26.4994 20.4235C26.687 20.236 26.9413 20.1306 27.2065 20.1306ZM27.2065 26.1306C27.4718 26.1306 27.7261 26.236 27.9137 26.4235C28.1012 26.611 28.2065 26.8654 28.2065 27.1306C28.2065 27.3958 28.1012 27.6502 27.9137 27.8377C27.7261 28.0253 27.4718 28.1306 27.2065 28.1306C26.9413 28.1306 26.687 28.0253 26.4994 27.8377C26.3119 27.6502 26.2065 27.3958 26.2065 27.1306C26.2065 26.8654 26.3119 26.611 26.4994 26.4235C26.687 26.236 26.9413 26.1306 27.2065 26.1306Z" fill="#F03E3D"/>
<path d="M37.2065 16.1306H34.2065V38.1306H37.2065C37.4718 38.1306 37.7261 38.0253 37.9137 37.8377C38.1012 37.6502 38.2065 37.3958 38.2065 37.1306V17.1306C38.2065 16.8654 38.1012 16.611 37.9137 16.4235C37.7261 16.236 37.4718 16.1306 37.2065 16.1306Z" fill="#F03E3D"/>
</svg>
